<svg xmlns="http://www.w3.org/2000/svg" viewBox="0 0 960 600" role="img" aria-labelledby="title">
  <title id="title">AI chatbot preview</title>
  <defs>
    <linearGradient id="bg" x1="0" x2="1" y1="0" y2="1">
      <stop offset="0" stop-color="#111827"/>
      <stop offset="1" stop-color="#312e81"/>
    </linearGradient>
  </defs>
  <rect width="960" height="600" fill="url(#bg)"/>
  <rect x="92" y="70" width="764" height="460" rx="28" fill="#f8fafc"/>
  <rect x="92" y="70" width="764" height="74" rx="28" fill="#0f172a"/>
  <circle cx="136" cy="107" r="13" fill="#22c55e"/>
  <rect x="166" y="98" width="170" height="16" rx="8" fill="#e2e8f0"/>
  <rect x="148" y="188" width="350" height="62" rx="18" fill="#e0f2fe"/>
  <rect x="456" y="284" width="380" height="72" rx="18" fill="#111827"/>
  <rect x="148" y="392" width="408" height="64" rx="18" fill="#e0f2fe"/>
  <rect x="166" y="212" width="250" height="10" rx="5" fill="#0f172a" opacity=".55"/>
  <rect x="488" y="310" width="272" height="10" rx="5" fill="#f59e0b"/>
  <rect x="488" y="332" width="190" height="10" rx="5" fill="#94a3b8"/>
  <rect x="166" y="418" width="310" height="10" rx="5" fill="#0f172a" opacity=".55"/>
  <rect x="148" y="484" width="688" height="48" rx="24" fill="#e2e8f0"/>
  <circle cx="810" cy="508" r="18" fill="#f59e0b"/>
  <path d="M804 508h12m-6-6v12" stroke="#111827" stroke-width="4" stroke-linecap="round"/>
</svg>
