<svg xmlns="http://www.w3.org/2000/svg" viewBox="0 0 960 600" role="img" aria-labelledby="title">
  <title id="title">Crime hotspot analysis map preview</title>
  <defs>
    <radialGradient id="glow-red" cx="50%" cy="50%" r="50%">
      <stop offset="0" stop-color="#fff7ed"/>
      <stop offset=".18" stop-color="#f97316"/>
      <stop offset=".48" stop-color="#dc2626"/>
      <stop offset="1" stop-color="#dc2626" stop-opacity="0"/>
    </radialGradient>
    <radialGradient id="glow-purple" cx="50%" cy="50%" r="50%">
      <stop offset="0" stop-color="#f5f3ff"/>
      <stop offset=".2" stop-color="#a855f7"/>
      <stop offset=".55" stop-color="#7c3aed"/>
      <stop offset="1" stop-color="#7c3aed" stop-opacity="0"/>
    </radialGradient>
    <radialGradient id="glow-cyan" cx="50%" cy="50%" r="50%">
      <stop offset="0" stop-color="#ecfeff"/>
      <stop offset=".2" stop-color="#38bdf8"/>
      <stop offset=".55" stop-color="#0284c7"/>
      <stop offset="1" stop-color="#0284c7" stop-opacity="0"/>
    </radialGradient>
    <radialGradient id="glow-green" cx="50%" cy="50%" r="50%">
      <stop offset="0" stop-color="#ecfdf5"/>
      <stop offset=".2" stop-color="#34d399"/>
      <stop offset=".55" stop-color="#059669"/>
      <stop offset="1" stop-color="#059669" stop-opacity="0"/>
    </radialGradient>
    <linearGradient id="marker" x1="0" x2="1" y1="0" y2="1">
      <stop offset="0" stop-color="#f59e0b"/>
      <stop offset="1" stop-color="#fb7185"/>
    </linearGradient>
    <filter id="soft-shadow" x="-40%" y="-40%" width="180%" height="180%">
      <feDropShadow dx="0" dy="8" stdDeviation="8" flood-color="#000" flood-opacity=".45"/>
    </filter>
  </defs>

  <rect width="960" height="600" fill="#05070a"/>
  <g opacity=".42" stroke="#29313b" stroke-width="1">
    <path d="M0 103h960M0 223h960M0 344h960M0 464h960"/>
    <path d="M116 0v600M234 0v600M352 0v600M470 0v600M588 0v600M706 0v600M824 0v600"/>
  </g>
  <g opacity=".36" fill="none" stroke="#3a434e" stroke-width="1.4">
    <path d="M28 271c60-31 95 16 143-5 35-16 32-55 86-59 67-5 90 61 151 47 42-10 49-47 99-42 63 6 79 70 142 65 48-4 67-48 118-38 45 9 76 54 134 37"/>
    <path d="M52 140c42 14 72-9 106-31 54-35 114 27 177 1 74-30 120 32 188 15 64-17 95-64 164-43 57 17 90 61 157 45"/>
    <path d="M8 400c59 18 89-24 142-13 55 12 76 58 130 58 63 1 80-57 145-53 68 4 78 70 144 77 82 8 110-84 184-58 52 18 81 58 156 40"/>
  </g>

  <g transform="translate(232 121)" fill="#0c1118" stroke="#334155" stroke-width="1.7" opacity=".9">
    <path d="M242 11l52 36 28 56 58 27 25 58 50 48-26 41 38 45-18 50-53 7-31 62-60 5-27 55-59-9-43-47-79-11-25-55-56-18 5-63-32-45 37-50-15-69 57-37 30-64 67 4z"/>
    <path d="M138 164l-45 20-25 52-54 26 35 43 49-10 31-51 50-18z"/>
    <path d="M299 112l67-39 72 19 32 56-26 45-77 8-44-42z"/>
    <path d="M367 249l77-1 51 38 4 62-54 27-67-16-36-58z"/>
    <path d="M219 435l24 72 46 38 43-15 11-55-39-43z"/>
  </g>

  <g filter="url(#soft-shadow)">
    <rect x="312" y="11" width="406" height="39" rx="19.5" fill="#10131f" stroke="#334155"/>
    <text x="364" y="36" fill="#f8fafc" font-family="Poppins, Arial, sans-serif" font-size="15" font-weight="700">Crime Hotspot Analysis - India</text>
    <text x="598" y="36" fill="#f59e0b" font-family="Poppins, Arial, sans-serif" font-size="9" letter-spacing=".8">POWERED BY K-MEANS</text>
    <circle cx="343" cy="30" r="5" fill="#38bdf8"/>
    <circle cx="348" cy="35" r="4" fill="#a855f7"/>
  </g>

  <g filter="url(#soft-shadow)" font-family="Poppins, Arial, sans-serif" text-anchor="middle" font-weight="800">
    <circle cx="254" cy="457" r="45" fill="url(#glow-red)"/>
    <circle cx="254" cy="457" r="18" fill="#991b1b" stroke="#fecaca" stroke-width="2"/>
    <text x="254" y="464" fill="#fff" font-size="18">1</text>

    <circle cx="497" cy="214" r="38" fill="url(#glow-cyan)"/>
    <circle cx="497" cy="214" r="17" fill="#075985" stroke="#bae6fd" stroke-width="2"/>
    <text x="497" y="220" fill="#fff" font-size="16">2</text>

    <circle cx="372" cy="94" r="38" fill="url(#glow-red)"/>
    <circle cx="372" cy="94" r="18" fill="#b45309" stroke="#fed7aa" stroke-width="2"/>
    <text x="372" y="100" fill="#fff" font-size="16">5</text>

    <circle cx="737" cy="319" r="39" fill="url(#glow-purple)"/>
    <circle cx="737" cy="319" r="18" fill="#581c87" stroke="#e9d5ff" stroke-width="2"/>
    <text x="737" y="326" fill="#fff" font-size="17">4</text>

    <circle cx="465" cy="516" r="39" fill="url(#glow-green)"/>
    <circle cx="465" cy="516" r="18" fill="#047857" stroke="#bbf7d0" stroke-width="2"/>
    <text x="465" y="523" fill="#fff" font-size="17">6</text>
  </g>

  <g filter="url(#soft-shadow)" font-family="Poppins, Arial, sans-serif" font-weight="700">
    <g>
      <circle cx="230" cy="329" r="15" fill="url(#marker)" opacity=".82"/>
      <text x="230" y="334" fill="#111827" text-anchor="middle" font-size="10">1817</text>
    </g>
    <g>
      <circle cx="515" cy="175" r="15" fill="url(#marker)" opacity=".82"/>
      <text x="515" y="180" fill="#111827" text-anchor="middle" font-size="10">2568</text>
    </g>
    <g>
      <circle cx="779" cy="345" r="15" fill="url(#marker)" opacity=".82"/>
      <text x="779" y="350" fill="#111827" text-anchor="middle" font-size="10">2518</text>
    </g>
    <g>
      <circle cx="420" cy="319" r="15" fill="url(#marker)" opacity=".82"/>
      <text x="420" y="324" fill="#111827" text-anchor="middle" font-size="10">690</text>
    </g>
    <g>
      <circle cx="277" cy="511" r="15" fill="url(#marker)" opacity=".82"/>
      <text x="277" y="516" fill="#111827" text-anchor="middle" font-size="10">2212</text>
    </g>
    <g>
      <circle cx="664" cy="235" r="15" fill="url(#marker)" opacity=".82"/>
      <text x="664" y="240" fill="#111827" text-anchor="middle" font-size="10">695</text>
    </g>
    <g>
      <circle cx="604" cy="235" r="15" fill="url(#marker)" opacity=".82"/>
      <text x="604" y="240" fill="#111827" text-anchor="middle" font-size="10">355</text>
    </g>
    <g>
      <circle cx="456" cy="406" r="15" fill="url(#marker)" opacity=".82"/>
      <text x="456" y="411" fill="#111827" text-anchor="middle" font-size="10">1053</text>
    </g>
  </g>

  <g transform="translate(0 392)" filter="url(#soft-shadow)">
    <rect width="174" height="184" rx="10" fill="#10131f" stroke="#273244"/>
    <text x="8" y="25" fill="#f59e0b" font-family="Poppins, Arial, sans-serif" font-size="13" font-weight="800">CRIME HOTSPOT CLUSTERS</text>
    <g fill="#f8fafc" font-family="Poppins, Arial, sans-serif" font-size="11">
      <text x="8" y="48">Hotspot Zone 1</text>
      <text x="8" y="68">Hotspot Zone 2</text>
      <text x="8" y="88">Hotspot Zone 3</text>
      <text x="8" y="108">Hotspot Zone 4</text>
      <text x="8" y="128">Hotspot Zone 5</text>
      <text x="8" y="148">Hotspot Zone 6</text>
    </g>
    <text x="8" y="164" fill="#94a3b8" font-family="Poppins, Arial, sans-serif" font-size="8">K-Means Clustering (k=6)</text>
    <text x="8" y="176" fill="#94a3b8" font-family="Poppins, Arial, sans-serif" font-size="8">Total Records: 37,950</text>
  </g>
</svg>
