<svg xmlns="http://www.w3.org/2000/svg" viewBox="0 0 960 600" role="img" aria-labelledby="title">
  <title id="title">Crime hotspot analytics dashboard preview</title>
  <defs>
    <linearGradient id="bg" x1="0" x2="1" y1="0" y2="1">
      <stop offset="0" stop-color="#071018"/>
      <stop offset="1" stop-color="#172554"/>
    </linearGradient>
    <linearGradient id="heat" x1="0" x2="1">
      <stop offset="0" stop-color="#f59e0b"/>
      <stop offset=".55" stop-color="#ef4444"/>
      <stop offset="1" stop-color="#38bdf8"/>
    </linearGradient>
  </defs>
  <rect width="960" height="600" fill="url(#bg)"/>
  <rect x="56" y="54" width="848" height="492" rx="28" fill="#f8fafc"/>
  <rect x="56" y="54" width="848" height="76" rx="28" fill="#0f172a"/>
  <circle cx="98" cy="92" r="10" fill="#ef4444"/>
  <circle cx="130" cy="92" r="10" fill="#f59e0b"/>
  <circle cx="162" cy="92" r="10" fill="#22c55e"/>
  <rect x="204" y="84" width="176" height="16" rx="8" fill="#e2e8f0"/>
  <rect x="742" y="82" width="102" height="20" rx="10" fill="#334155"/>
  <rect x="92" y="166" width="242" height="322" rx="22" fill="#0f172a"/>
  <rect x="122" y="202" width="128" height="14" rx="7" fill="#f59e0b"/>
  <rect x="122" y="252" width="158" height="12" rx="6" fill="#64748b"/>
  <rect x="122" y="290" width="122" height="12" rx="6" fill="#64748b"/>
  <rect x="122" y="328" width="178" height="12" rx="6" fill="#64748b"/>
  <rect x="122" y="402" width="158" height="52" rx="14" fill="#1e293b"/>
  <rect x="372" y="166" width="486" height="322" rx="22" fill="#e0f2fe"/>
  <path d="M408 386c50-92 100-44 150-104 44-52 96-42 132 12 38 58 78 32 132 74" fill="none" stroke="#0f172a" stroke-width="18" stroke-linecap="round" opacity=".14"/>
  <circle cx="510" cy="322" r="82" fill="#f59e0b" opacity=".35"/>
  <circle cx="510" cy="322" r="46" fill="#ef4444" opacity=".72"/>
  <circle cx="660" cy="266" r="64" fill="#f59e0b" opacity=".3"/>
  <circle cx="660" cy="266" r="34" fill="#ef4444" opacity=".64"/>
  <circle cx="752" cy="384" r="70" fill="#38bdf8" opacity=".22"/>
  <circle cx="752" cy="384" r="34" fill="#f59e0b" opacity=".54"/>
  <path d="M410 438h410" stroke="#94a3b8" stroke-width="3" stroke-linecap="round" opacity=".55"/>
  <path d="M410 210h410" stroke="#94a3b8" stroke-width="3" stroke-linecap="round" opacity=".35"/>
  <path d="M448 198v250M548 198v250M648 198v250M748 198v250" stroke="#94a3b8" stroke-width="2" opacity=".25"/>
  <path d="M410 386c50-92 100-44 150-104 44-52 96-42 132 12 38 58 78 32 132 74" fill="none" stroke="url(#heat)" stroke-width="12" stroke-linecap="round"/>
</svg>
