<svg xmlns="http://www.w3.org/2000/svg" viewBox="0 0 960 600" role="img" aria-labelledby="title">
  <title id="title">Handwritten equation solver preview</title>
  <rect width="960" height="600" fill="#090b10"/>
  <rect x="64" y="58" width="828" height="484" rx="26" fill="#f8fafc"/>
  <rect x="96" y="96" width="364" height="372" rx="22" fill="#fff" stroke="#cbd5e1" stroke-width="3"/>
  <path d="M150 198c34-34 66-34 94 0m-66 76l98-102m54 58h70m-35-35v70" fill="none" stroke="#111827" stroke-width="18" stroke-linecap="round"/>
  <path d="M152 350c42-36 76-34 110 2 40 42 84 38 126-10" fill="none" stroke="#f59e0b" stroke-width="16" stroke-linecap="round"/>
  <rect x="512" y="104" width="296" height="68" rx="18" fill="#111827"/>
  <rect x="540" y="130" width="172" height="16" rx="8" fill="#f59e0b"/>
  <rect x="512" y="214" width="296" height="92" rx="18" fill="#e0f2fe"/>
  <rect x="512" y="336" width="296" height="92" rx="18" fill="#dcfce7"/>
  <rect x="540" y="248" width="156" height="16" rx="8" fill="#0f172a" opacity=".7"/>
  <rect x="540" y="370" width="118" height="16" rx="8" fill="#0f172a" opacity=".7"/>
  <circle cx="750" cy="382" r="34" fill="#22c55e"/>
  <path d="M734 383l14 14 30-36" fill="none" stroke="#fff" stroke-width="8" stroke-linecap="round" stroke-linejoin="round"/>
</svg>
