<svg xmlns="http://www.w3.org/2000/svg" viewBox="0 0 960 600" role="img" aria-labelledby="title">
  <title id="title">EventFlow event management dashboard preview</title>
  <defs>
    <linearGradient id="bg" x1="0" x2="1" y1="0" y2="1">
      <stop offset="0" stop-color="#0f172a"/>
      <stop offset=".55" stop-color="#1e1b4b"/>
      <stop offset="1" stop-color="#111827"/>
    </linearGradient>
    <linearGradient id="accent" x1="0" x2="1" y1="0" y2="1">
      <stop offset="0" stop-color="#f59e0b"/>
      <stop offset="1" stop-color="#fb7185"/>
    </linearGradient>
    <linearGradient id="blue" x1="0" x2="1" y1="0" y2="1">
      <stop offset="0" stop-color="#38bdf8"/>
      <stop offset="1" stop-color="#6366f1"/>
    </linearGradient>
    <filter id="shadow" x="-20%" y="-20%" width="140%" height="140%">
      <feDropShadow dx="0" dy="18" stdDeviation="18" flood-color="#020617" flood-opacity=".35"/>
    </filter>
  </defs>
  <rect width="960" height="600" fill="url(#bg)"/>
  <rect x="74" y="66" width="812" height="468" rx="30" fill="#f8fafc" filter="url(#shadow)"/>
  <rect x="74" y="66" width="812" height="82" rx="30" fill="#111827"/>
  <circle cx="124" cy="107" r="18" fill="url(#accent)"/>
  <path d="M116 108h16m-8-8v16" stroke="#111827" stroke-width="5" stroke-linecap="round"/>
  <rect x="158" y="96" width="132" height="14" rx="7" fill="#e2e8f0"/>
  <rect x="716" y="92" width="112" height="30" rx="15" fill="#27324a"/>
  <circle cx="846" cy="107" r="18" fill="#f59e0b"/>
  <rect x="106" y="180" width="178" height="78" rx="20" fill="#e0f2fe"/>
  <rect x="312" y="180" width="178" height="78" rx="20" fill="#eef2ff"/>
  <rect x="518" y="180" width="178" height="78" rx="20" fill="#fff7ed"/>
  <circle cx="142" cy="219" r="20" fill="url(#blue)"/>
  <circle cx="348" cy="219" r="20" fill="url(#accent)"/>
  <circle cx="554" cy="219" r="20" fill="#22c55e"/>
  <rect x="174" y="202" width="78" height="12" rx="6" fill="#0f172a" opacity=".58"/>
  <rect x="174" y="225" width="52" height="18" rx="9" fill="#0f172a"/>
  <rect x="380" y="202" width="78" height="12" rx="6" fill="#0f172a" opacity=".58"/>
  <rect x="380" y="225" width="56" height="18" rx="9" fill="#0f172a"/>
  <rect x="586" y="202" width="78" height="12" rx="6" fill="#0f172a" opacity=".58"/>
  <rect x="586" y="225" width="48" height="18" rx="9" fill="#0f172a"/>
  <rect x="724" y="180" width="116" height="244" rx="22" fill="#111827"/>
  <rect x="746" y="207" width="72" height="10" rx="5" fill="#e2e8f0"/>
  <g fill="#94a3b8">
    <circle cx="754" cy="252" r="5"/><circle cx="782" cy="252" r="5"/><circle cx="810" cy="252" r="5"/>
    <circle cx="754" cy="280" r="5"/><circle cx="782" cy="280" r="5"/><circle cx="810" cy="280" r="5"/>
    <circle cx="754" cy="308" r="5"/><circle cx="782" cy="308" r="5"/><circle cx="810" cy="308" r="5"/>
  </g>
  <circle cx="782" cy="280" r="13" fill="url(#accent)"/>
  <rect x="746" y="348" width="76" height="12" rx="6" fill="#e2e8f0"/>
  <rect x="746" y="374" width="18" height="34" rx="6" fill="#38bdf8"/>
  <rect x="772" y="344" width="18" height="64" rx="6" fill="#6366f1"/>
  <rect x="798" y="364" width="18" height="44" rx="6" fill="#fb7185"/>
  <rect x="106" y="298" width="274" height="170" rx="24" fill="#f1f5f9"/>
  <rect x="406" y="298" width="290" height="170" rx="24" fill="#eef2ff"/>
  <rect x="132" y="326" width="118" height="14" rx="7" fill="#0f172a"/>
  <rect x="432" y="326" width="140" height="14" rx="7" fill="#0f172a"/>
  <path d="M132 419c36-62 72-7 111-52 42-48 68 28 108-22" fill="none" stroke="url(#accent)" stroke-width="9" stroke-linecap="round"/>
  <path d="M432 421c28-22 50-38 84-28 33 10 42-50 80-42 28 5 39 34 72 20" fill="none" stroke="url(#blue)" stroke-width="9" stroke-linecap="round"/>
  <rect x="132" y="360" width="72" height="10" rx="5" fill="#64748b"/>
  <rect x="432" y="360" width="96" height="10" rx="5" fill="#64748b"/>
  <rect x="132" y="484" width="564" height="16" rx="8" fill="#e2e8f0"/>
  <rect x="132" y="484" width="364" height="16" rx="8" fill="url(#accent)"/>
</svg>
