<svg xmlns="http://www.w3.org/2000/svg" viewBox="0 0 960 600" role="img" aria-labelledby="title">
  <title id="title">Library management dashboard preview</title>
  <rect width="960" height="600" fill="#08111f"/>
  <rect x="62" y="66" width="836" height="468" rx="24" fill="#f8fafc"/>
  <rect x="62" y="66" width="180" height="468" rx="24" fill="#052e2b"/>
  <rect x="90" y="104" width="90" height="14" rx="7" fill="#f59e0b"/>
  <rect x="90" y="160" width="126" height="10" rx="5" fill="#94a3b8"/>
  <rect x="90" y="204" width="98" height="10" rx="5" fill="#94a3b8"/>
  <rect x="90" y="248" width="128" height="10" rx="5" fill="#94a3b8"/>
  <rect x="90" y="470" width="124" height="42" rx="10" fill="#134e4a"/>
  <rect x="282" y="104" width="172" height="18" rx="9" fill="#0f172a"/>
  <rect x="282" y="166" width="388" height="262" rx="18" fill="#fff"/>
  <rect x="700" y="166" width="242" height="156" rx="18" fill="#fff"/>
  <rect x="308" y="196" width="286" height="12" rx="6" fill="#cbd5e1"/>
  <rect x="612" y="188" width="42" height="28" rx="8" fill="#0f766e"/>
  <rect x="308" y="242" width="286" height="12" rx="6" fill="#cbd5e1"/>
  <rect x="612" y="234" width="42" height="28" rx="8" fill="#0f766e"/>
  <rect x="308" y="288" width="286" height="12" rx="6" fill="#cbd5e1"/>
  <rect x="612" y="280" width="42" height="28" rx="8" fill="#0f766e"/>
  <rect x="308" y="334" width="286" height="12" rx="6" fill="#cbd5e1"/>
  <rect x="612" y="326" width="42" height="28" rx="8" fill="#0f766e"/>
  <rect x="308" y="380" width="286" height="12" rx="6" fill="#cbd5e1"/>
  <rect x="612" y="372" width="42" height="28" rx="8" fill="#0f766e"/>
  <rect x="728" y="202" width="158" height="12" rx="6" fill="#0f172a"/>
  <rect x="728" y="240" width="98" height="10" rx="5" fill="#f59e0b"/>
  <rect x="728" y="270" width="148" height="10" rx="5" fill="#cbd5e1"/>
  <rect x="282" y="456" width="420" height="44" rx="12" fill="#ecfeff"/>
</svg>
